<?xml version="1.0" encoding="UTF-8" standalone="no"?>
<!DOCTYPE svg PUBLIC "-//W3C//DTD SVG 1.1//EN" "http://www.w3.org/Graphics/SVG/1.1/DTD/svg11.dtd">
<svg width="100%" height="100%" viewBox="0 0 600 600" version="1.1" xmlns="http://www.w3.org/2000/svg" xmlns:xlink="http://www.w3.org/1999/xlink" xml:space="preserve" xmlns:serif="http://www.serif.com/" style="fill-rule:evenodd;clip-rule:evenodd;stroke-linejoin:round;stroke-miterlimit:2;">
    <g transform="matrix(1,0,0,1,-50,-50)">
        <g transform="matrix(1.7733,0,0,1.7733,-224.205,-353.676)">
            <circle cx="323.806" cy="396.817" r="169.176" style="fill:rgb(112,82,133);"/>
        </g>
        <g transform="matrix(7.85714,0,0,7.85714,413.448,460)">
            <path d="M0,-28L-16.055,-28C-19.348,-28 -22.027,-25.32 -22.027,-22.027L-22.027,-5.973C-22.027,-2.68 -19.348,0 -16.055,0L-13.027,0C-12.475,0 -12.027,-0.448 -12.027,-1C-12.027,-1.552 -12.475,-2 -13.027,-2L-16.055,-2C-18.245,-2 -20.027,-3.782 -20.027,-5.973L-20.027,-22.027C-20.027,-24.218 -18.245,-26 -16.055,-26L0,-26C2.19,-26 3.973,-24.218 3.973,-22.027L3.973,-5.973C3.973,-3.782 2.19,-2 0,-2L-9.027,-2C-9.58,-2 -10.027,-1.552 -10.027,-1C-10.027,-0.448 -9.58,0 -9.027,0L0,0C3.293,0 5.973,-2.68 5.973,-5.973L5.973,-22.027C5.973,-25.32 3.293,-28 0,-28" style="fill:white;fill-rule:nonzero;"/>
        </g>
        <g transform="matrix(7.85714,0,0,7.85714,426.645,425.499)">
            <path d="M0,-19.316C-0.391,-19.707 -1.023,-19.707 -1.414,-19.316L-19.414,-1.316C-19.805,-0.925 -19.805,-0.293 -19.414,0.098C-19.219,0.293 -18.963,0.391 -18.707,0.391C-18.451,0.391 -18.195,0.293 -18,0.098L0,-17.902C0.391,-18.293 0.391,-18.925 0,-19.316" style="fill:white;fill-rule:nonzero;"/>
        </g>
        <g transform="matrix(-7.85714,0,0,7.85714,274.107,425.499)">
            <path d="M0,-19.316C-0.391,-19.707 -1.023,-19.707 -1.414,-19.316L-19.414,-1.316C-19.805,-0.925 -19.805,-0.293 -19.414,0.098C-19.219,0.293 -18.963,0.391 -18.707,0.391C-18.451,0.391 -18.195,0.293 -18,0.098L0,-17.902C0.391,-18.293 0.391,-18.925 0,-19.316" style="fill:white;fill-rule:nonzero;"/>
        </g>
    </g>
</svg>
