<?xml version="1.0" encoding="UTF-8" standalone="no"?>
<!DOCTYPE svg PUBLIC "-//W3C//DTD SVG 1.1//EN" "http://www.w3.org/Graphics/SVG/1.1/DTD/svg11.dtd">
<svg width="100%" height="100%" viewBox="0 0 600 600" version="1.1" xmlns="http://www.w3.org/2000/svg" xmlns:xlink="http://www.w3.org/1999/xlink" xml:space="preserve" xmlns:serif="http://www.serif.com/" style="fill-rule:evenodd;clip-rule:evenodd;stroke-linejoin:round;stroke-miterlimit:2;">
    <g transform="matrix(1,0,0,1,-50,-50)">
        <g transform="matrix(1.7733,0,0,1.7733,-224.205,-353.676)">
            <circle cx="323.806" cy="396.817" r="169.176" style="fill:rgb(112,82,133);"/>
        </g>
        <g transform="matrix(5.24852e-16,-8.57149,8.57149,5.24852e-16,453.236,461.429)">
            <path d="M0,-24C-0.552,-24 -1,-23.553 -1,-23L-1,-1C-1,-0.447 -0.552,0 0,0C0.552,0 1,-0.447 1,-1L1,-23C1,-23.553 0.552,-24 0,-24" style="fill:white;fill-rule:nonzero;"/>
        </g>
        <g transform="matrix(5.24852e-16,-8.57149,8.57149,5.24852e-16,341.807,260.995)">
            <path d="M0,-10L-16.768,-10C-18.762,-10 -20.384,-8.378 -20.384,-6.384L-20.384,-3.616C-20.384,-1.622 -18.762,0 -16.768,0L-14.384,0C-13.832,0 -13.384,-0.447 -13.384,-1C-13.384,-1.553 -13.832,-2 -14.384,-2L-16.768,-2C-17.659,-2 -18.384,-2.725 -18.384,-3.616L-18.384,-6.384C-18.384,-7.275 -17.659,-8 -16.768,-8L0,-8C0.892,-8 1.616,-7.275 1.616,-6.384L1.616,-3.616C1.616,-2.725 0.892,-2 0,-2L-10.384,-2C-10.936,-2 -11.384,-1.553 -11.384,-1C-11.384,-0.447 -10.936,0 -10.384,0L0,0C1.994,0 3.616,-1.622 3.616,-3.616L3.616,-6.384C3.616,-8.378 1.994,-10 0,-10" style="fill:white;fill-rule:nonzero;"/>
        </g>
        <g transform="matrix(5.24852e-16,-8.57149,8.57149,5.24852e-16,444.665,338.138)">
            <path d="M0,-10L-7.768,-10C-9.445,-10 -10.89,-8.863 -11.283,-7.234C-11.413,-6.697 -11.083,-6.157 -10.545,-6.028C-10.009,-5.895 -9.468,-6.229 -9.339,-6.766C-9.164,-7.492 -8.518,-8 -7.768,-8L0,-8C0.892,-8 1.616,-7.275 1.616,-6.384L1.616,-3.616C1.616,-2.725 0.892,-2 0,-2L-7.768,-2C-8.659,-2 -9.384,-2.725 -9.384,-3.616C-9.384,-4.169 -9.832,-4.616 -10.384,-4.616C-10.936,-4.616 -11.384,-4.169 -11.384,-3.616C-11.384,-1.622 -9.762,0 -7.768,0L0,0C1.994,0 3.616,-1.622 3.616,-3.616L3.616,-6.384C3.616,-8.378 1.994,-10 0,-10" style="fill:white;fill-rule:nonzero;"/>
        </g>
    </g>
</svg>
