<?xml version="1.0" encoding="UTF-8" standalone="no"?>
<!DOCTYPE svg PUBLIC "-//W3C//DTD SVG 1.1//EN" "http://www.w3.org/Graphics/SVG/1.1/DTD/svg11.dtd">
<svg width="100%" height="100%" viewBox="0 0 600 600" version="1.1" xmlns="http://www.w3.org/2000/svg" xmlns:xlink="http://www.w3.org/1999/xlink" xml:space="preserve" xmlns:serif="http://www.serif.com/" style="fill-rule:evenodd;clip-rule:evenodd;stroke-linejoin:round;stroke-miterlimit:2;">
    <g transform="matrix(1,0,0,1,-50,-50)">
        <g transform="matrix(1.7733,0,0,1.7733,-224.205,-353.676)">
            <circle cx="323.806" cy="396.817" r="169.176" style="fill:rgb(112,82,133);"/>
        </g>
        <g transform="matrix(1.00437,0,0,1.00437,-3.40406,-34.3986)">
            <path d="M309.601,305.563C267.014,305.563 232.438,340.138 232.438,382.725C232.438,425.313 267.014,459.888 309.601,459.888C352.188,459.888 386.764,425.313 386.764,382.725C386.764,340.138 352.188,305.563 309.601,305.563ZM309.601,322.489C342.847,322.489 369.838,349.48 369.838,382.725C369.838,415.971 342.847,442.962 309.601,442.962C276.356,442.962 249.364,415.971 249.364,382.725C249.364,349.48 276.356,322.489 309.601,322.489Z" style="fill:white;"/>
        </g>
        <g transform="matrix(1.00437,0,0,1.00437,-3.40406,-34.3986)">
            <path d="M309.601,305.563C267.014,305.563 232.438,340.138 232.438,382.725C232.438,425.313 267.014,459.888 309.601,459.888C352.188,459.888 386.764,425.313 386.764,382.725C386.764,340.138 352.188,305.563 309.601,305.563ZM309.601,322.489C342.847,322.489 369.838,349.48 369.838,382.725C369.838,415.971 342.847,442.962 309.601,442.962C276.356,442.962 249.364,415.971 249.364,382.725C249.364,349.48 276.356,322.489 309.601,322.489Z" style="fill:white;"/>
        </g>
        <g transform="matrix(1.00437,0,0,1.00437,82.2516,-34.3986)">
            <path d="M352.185,340.141C363.089,351.044 369.838,366.103 369.838,382.725C369.838,415.971 342.847,442.962 309.601,442.962C276.356,442.962 249.364,415.971 249.364,382.725C249.364,349.48 276.356,322.489 309.601,322.489C314.272,322.489 318.064,318.697 318.064,314.026C318.064,309.355 314.272,305.563 309.601,305.563C267.014,305.563 232.438,340.138 232.438,382.725C232.438,425.313 267.014,459.888 309.601,459.888C352.188,459.888 386.764,425.313 386.764,382.725C386.764,361.431 378.121,342.14 364.154,328.173C360.851,324.87 355.488,324.87 352.185,328.173C348.882,331.475 348.882,336.838 352.185,340.141Z" style="fill:white;"/>
        </g>
    </g>
</svg>
